<svg id="Layer_1" data-name="Layer 1" xmlns="http://www.w3.org/2000/svg" viewBox="0 0 72 72"><defs><style>.cls-1{fill:#179182;}</style></defs><title>CPLOOG</title><polygon class="cls-1" points="66.39 59.89 36.01 69.54 36 69.55 35.99 69.54 5.62 59.89 26.56 53.3 17.11 57.85 36 63.63 54.9 57.85 45.45 53.3 66.39 59.89"/><path class="cls-1" d="M23,22.75A11.34,11.34,0,0,0,28.09,32V42.69C19,39.75,12.5,31.94,12.5,22.75S19,5.76,28.09,2.83V13.47A11.34,11.34,0,0,0,23,22.75Z"/><path class="cls-1" d="M59.58,22.75a20.15,20.15,0,0,1-7.27,15.3H46.24v5.54l-10.14,10-3-2.8V38.05h0V34.19a15.12,15.12,0,0,0,2.88.28c7.2,0,13-5.24,13-11.72S43.24,11,36,11a14.35,14.35,0,0,0-2.88.29V1.74A27.49,27.49,0,0,1,36,1.59C49,1.59,59.58,11.07,59.58,22.75Z"/></svg>